<?xml version="1.0" encoding="utf-8"?>
<!-- Generator: Adobe Illustrator 19.2.1, SVG Export Plug-In . SVG Version: 6.00 Build 0)  -->
<svg version="1.1" id="Layer_1" xmlns="http://www.w3.org/2000/svg" xmlns:xlink="http://www.w3.org/1999/xlink" x="0px" y="0px"
	 viewBox="0 0 1222.7 659.4" style="enable-background:new 0 0 1222.7 659.4;" xml:space="preserve">
<style type="text/css">
	.st0{fill:#342988;}
	.st1{fill:#CD1413;}
</style>
<g>
	<path class="st0" d="M111,584.7c26.7,10.7,39.2-8.5,45.9-17c44.7-56.6,99.7-238.4,298.9-270c-197.3-44-277,205.8-309,251.3
		c-9.2,13.1-18.5,27.8-27.3,21.2C66.7,530.8-6,573,0.4,639.3c1.1,11.4,8.8,14.9,18.1,14.9h162.8c24.9-49.3,73.9-99,135.1-105
		c55.3-5.5,56.8,8.4,72.1-34.6c13.8-38.6,31.8-51.2,64.3-56.2c-50.9-11.1-86.2-4.9-91.6,35.9c-2.3,17.3,6.1,37.2-37.3,33.9
		c-97.5-7.5-128.2,69.9-150.3,111.4c-49.5-0.9-90.4-3.8-130.7-6.4c-11.6-0.7-18.5-1.8-18.5-11.5C22.6,580.2,63.1,565.5,111,584.7"/>
	<path class="st0" d="M865,488.6c-9.3-7.7-29-20.7-56.4-20.7c-2.4,0-4.8,0.1-7.1,0.3c-14.9,1.2-28.8,5.5-41.2,12.7
		c-11.2,6.5-21,15.3-28.2,25.4c-6.1,8.6-11,19.2-14,30.6c-3.3,12.4-4.4,25.4-3.3,38.5c2,23,12.1,44.1,28.6,59.5
		c8.3,7.8,17.9,13.8,28.6,18c11.2,4.4,23.2,6.6,35.8,6.6c4,0,8.2-0.2,12.3-0.7c34.5-3.8,59.8-23,73.2-55.5c-6.4-1.5-13-2.9-19.3-4.3
		c-4.2-0.9-8.5-1.8-12.7-2.7c-7.5,13.1-21.3,29-44.7,31c-2.4,0.2-4.9,0.3-7.2,0.3c-32.7,0-55-21-58.1-54.9l-0.1-0.8h146.9
		c1.2-18.2-1.4-34.9-7.8-49.6C884.7,509.2,876.2,497.8,865,488.6 M859.6,546.8c-5.1,0-10.6-0.1-16.8-0.1c-8,0-16.3,0-24.3,0.1
		c-8,0-16.3,0.1-24.3,0.1c-17.2,0-30-0.2-41.5-0.5l-0.9,0l0.2-0.9c7-26.7,25.3-42.7,51.4-44.9c1.9-0.2,3.9-0.3,5.8-0.3
		c26.7,0,46.4,17.5,51.3,45.7l0.1,0.9L859.6,546.8z"/>
	<path class="st0" d="M671.4,561.2c0-16-0.3-30.2-4.1-42.8c-4.4-14.5-12.5-26.8-23.6-35.7c-12.1-9.7-27.3-14.8-44-14.8
		c-2.2,0-4.4,0.1-6.6,0.3c-23.3,1.8-41.3,10.1-56.7,26.3l-1.2,1.3l-0.1-1.7c-0.7-20.8-0.6-42.7-0.5-63.8c0.1-12.8,0.1-26,0-38.9
		c-2-0.2-4.1-0.3-6.5-0.4h0c-16.5,0-30,13.5-30,30c0,0.2,0,0.4,0,0.5v232.7h36.5c0.6-13.2,0.3-27.4-0.1-41.1
		c-0.4-18.7-0.9-38.1,1-54.7c2.1-18.8,7.1-32.2,15.2-41.1c8.7-9.6,23.5-15.5,38.7-15.5c2.9,0,5.8,0.2,8.6,0.6
		c18.7,2.8,33.2,19.4,35.4,40.4c1.7,17,1.2,37.6,0.6,57.6c-0.5,18.5-1.1,37.7,0.3,53.8h36.6c0.6-22.9,0.5-47.6,0.5-71.5
		C671.4,575.2,671.4,568.2,671.4,561.2"/>
	<path class="st0" d="M1213.8,473.6c-12.5,0-23.8,7.9-28.1,19.6l-0.4,1.1l-0.8-0.7c-16.6-15.5-36.6-24-59.4-25.4
		c-1.9-0.1-3.9-0.2-5.8-0.2c-13.3,0-25.9,2.7-37.6,8.1c-10,4.7-19.2,11.3-26.5,19.2c-10.5,11.3-23.4,30.7-25.9,58.6
		c-1.6,18.3,0.9,35.3,7.6,50.6c5.6,12.9,13.9,24.1,24.6,33.4c13.1,11.3,30.7,19.1,47.2,20.9c3.4,0.4,6.9,0.5,10.4,0.5
		c22.1,0,44.8-7.5,59-19.6c0.7-0.6,1.3-1.3,1.9-2.1c1.2-1.6,2.5-3.3,4.9-3.5l0.8-0.1v20.2c1.6,0,3.4,0,5.3,0c2.9,0,5.9,0,8.7,0.1
		c2.9,0,5.8,0.1,8.7,0.1c5.8,0,10.2-0.1,14.2-0.5V473.6H1213.8z M1170,607c-11.5,12.7-27.6,20.1-44.4,20.3h-0.8
		c-17.9,0-33.8-7.1-44.9-19.9c-12.4-14.3-17.6-34-14.5-55.5c4.1-28.6,23.7-47.6,52.3-50.9c2.6-0.3,5.2-0.5,7.7-0.5
		c31.5,0,57.4,24.5,60.3,56.9C1187.5,576.3,1181.8,593.9,1170,607"/>
	<path class="st0" d="M976.4,390.9c-16.5,0-30,13.5-30,30v233.3h36.5V391.3C980.9,391.1,978.8,391,976.4,390.9L976.4,390.9z"/>
	<path class="st1" d="M223,193.1c3.8-1.6,3.9,0.4,2.8,1.7c-2.5,2.8-11.2,12.9-17.8,30.7c-1.2,3.3-4.4,5.7-6.5,0.7
		c-5-12.2-11.5-24.3-23.7-39.6c-6.8-8.5-1.1-14.8,4-18.8c15.6-12.3,44.1-26.1,61.9-33.1c30.1-11.8,17.4-44.6-19.3-50.7
		c48.5-31,106.7-49.7,150.1-54.1c-7.1,10.1-12.3,19.2-18.2,29.8c68.1-14.4,141-1.6,180.2,14c-10.1,4.2-34.5,17-47.9,26.4
		c73.9,18,127.4,63.1,150.4,89c-52.3,8.2-56.3,18.5-33.4,35.2c32.4,23.7,108,59.7,120.2,125.8c0-59.1-42.8-97.8-61.5-118.5
		c-15.9-17.6-10.5-25.1,44.6-15.8c-15-19.5-70.4-84.9-156.9-117.7c17.3-6,47.6-18.1,63.6-19.4C577.4,56,511,27.1,429.3,26.5
		c8.5-6.1,19-13.8,31.9-21.5c-60.4-10.6-118.6-3.6-170,15.5C256,33.6,215.7,56,177.9,93c32.9-6.2,64.4,19.7,46.2,29.6
		c-29,15.8-46.9,29-60,39.9c-11.1,9.2-16.3,19.2-6,25.5c28.8,17.7,37.5,39.8,42.7,53.3c2.2,5.6,7.8,10.8,12.2,2.3
		c7.7-14.8,10.3-51.3,46-64.3c4.9-1.8,7-4.3,6.1-6.3c-1-2.4-8.6-1.9-19.6,0.7c-22.5,5.2-56.3,15.3-95.6,39.4
		c-30.3,18.6-53.5,39.7-69.8,58.2c-25.3,28.7-2,31.9,11.6,37.1c32.1,12.4,49.9,97.2,116.7,83.4c10.3-2.2,15.2-27.5,13.3-28.3
		c-4.6-1.5-29.2,37.9-56.2,3.6c-18.7-23.8-22.2-52.2-57.8-77.7c-7.4-5.3-5.7-11.5-0.2-17.3c20.8-21.8,30.7-29.3,49.4-43.1
		C183,209.7,210.6,198.4,223,193.1"/>
</g>
</svg>
